HIERARCHY
ROOT Hips
{
	OFFSET 0.000000 0.000000 0.000000
	CHANNELS 6 Xposition Yposition Zposition Zrotation Yrotation Xrotation 
	JOINT LHipJoint
	{
		OFFSET 0.000000 0.000000 0.000000
		CHANNELS 3 Zrotation Yrotation Xrotation
		JOINT LeftUpLeg
		{
			OFFSET 1.363060 -1.794630 0.839290
			CHANNELS 3 Zrotation Yrotation Xrotation
			JOINT LeftLeg
			{
				OFFSET 2.448110 -6.726130 0.000000
				CHANNELS 3 Zrotation Yrotation Xrotation
				JOINT LeftFoot
				{
					OFFSET 2.562200 -7.039590 0.000000
					CHANNELS 3 Zrotation Yrotation Xrotation
					JOINT LeftToeBase
					{
						OFFSET 0.157640 -0.433110 2.322550
						CHANNELS 3 Zrotation Yrotation Xrotation
						End Site
						{
							OFFSET 0.000000 0.000000 0.000000
						}
					}
				}
			}
		}
	}
	JOINT RHipJoint
	{
		OFFSET 0.000000 0.000000 0.000000
		CHANNELS 3 Zrotation Yrotation Xrotation
		JOINT RightUpLeg
		{
			OFFSET -1.305520 -1.794630 0.839290
			CHANNELS 3 Zrotation Yrotation Xrotation
			JOINT RightLeg
			{
				OFFSET -2.542530 -6.985550 0.000000
				CHANNELS 3 Zrotation Yrotation Xrotation
				JOINT RightFoot
				{
					OFFSET -2.568260 -7.056230 0.000000
					CHANNELS 3 Zrotation Yrotation Xrotation
					JOINT RightToeBase
					{
						OFFSET -0.164730 -0.452590 2.363150
						CHANNELS 3 Zrotation Yrotation Xrotation
						End Site
						{
							OFFSET 0.000000 0.000000 0.000000
						}
					}
				}
			}
		}
	}
	JOINT LowerBack
	{
		OFFSET 0.000000 0.000000 0.000000
		CHANNELS 3 Zrotation Yrotation Xrotation
		JOINT Spine
		{
			OFFSET 0.028270 2.035590 -0.193380
			CHANNELS 3 Zrotation Yrotation Xrotation
			JOINT Spine1
			{
				OFFSET 0.056720 2.048850 -0.042750
				CHANNELS 3 Zrotation Yrotation Xrotation
				JOINT Neck
				{
					OFFSET 0.000000 0.000000 0.000000
					CHANNELS 3 Zrotation Yrotation Xrotation
					JOINT Neck1
					{
						OFFSET -0.054170 1.746240 0.172020
						CHANNELS 3 Zrotation Yrotation Xrotation
						JOINT Head
						{
							OFFSET 0.104070 1.761360 -0.123970
							CHANNELS 3 Zrotation Yrotation Xrotation
							End Site
							{
								OFFSET 0.000000 0.000000 0.000000
							}
						}
					}
				}
				JOINT LeftShoulder
				{
					OFFSET 0.000000 0.000000 0.000000
					CHANNELS 3 Zrotation Yrotation Xrotation
					JOINT LeftArm
					{
						OFFSET 3.362410 1.200890 -0.311210
						CHANNELS 3 Zrotation Yrotation Xrotation
						JOINT LeftForeArm
						{
							OFFSET 4.983000 -0.000000 -0.000000
							CHANNELS 3 Zrotation Yrotation Xrotation
							JOINT LeftHand
							{
								OFFSET 3.483560 -0.000000 -0.000000
								CHANNELS 3 Zrotation Yrotation Xrotation
								JOINT LeftFingerBase
								{
									OFFSET 0.000000 0.000000 0.000000
									CHANNELS 3 Zrotation Yrotation Xrotation
									JOINT LeftHandIndex1
									{
										OFFSET 0.715260 -0.000000 -0.000000
										CHANNELS 3 Zrotation Yrotation Xrotation
										End Site
										{
											OFFSET 0.000000 0.000000 0.000000
										}
									}
								}
								JOINT LThumb
								{
									OFFSET 0.000000 0.000000 0.000000
									CHANNELS 3 Zrotation Yrotation Xrotation
									End Site
									{
										OFFSET 0.000000 0.000000 0.000000
									}
								}
							}
						}
					}
				}
				JOINT RightShoulder
				{
					OFFSET 0.000000 0.000000 0.000000
					CHANNELS 3 Zrotation Yrotation Xrotation
					JOINT RightArm
					{
						OFFSET -3.136600 1.374050 -0.404650
						CHANNELS 3 Zrotation Yrotation Xrotation
						JOINT RightForeArm
						{
							OFFSET -5.241900 -0.000000 -0.000000
							CHANNELS 3 Zrotation Yrotation Xrotation
							JOINT RightHand
							{
								OFFSET -3.444170 -0.000000 -0.000000
								CHANNELS 3 Zrotation Yrotation Xrotation
								JOINT RightFingerBase
								{
									OFFSET 0.000000 0.000000 0.000000
									CHANNELS 3 Zrotation Yrotation Xrotation
									JOINT RightHandIndex1
									{
										OFFSET -0.622530 -0.000000 -0.000000
										CHANNELS 3 Zrotation Yrotation Xrotation
										End Site
										{
											OFFSET 0.000000 0.000000 0.000000
										}
									}
								}
								JOINT RThumb
								{
									OFFSET 0.000000 0.000000 0.000000
									CHANNELS 3 Zrotation Yrotation Xrotation
									End Site
									{
										OFFSET 0.000000 0.000000 0.000000
									}
								}
							}
						}
					}
				}
			}
		}
	}
}
MOTION
Frames: 10
Frame Time: 0.008333
3.224724 16.383886 0.885624 166.490519 -72.678594 -149.269309 -9.836330 -0.192617 -2.166943 -4.413928 21.045823 -30.465600 -1.764944 0.627248 26.877423 3.648676 24.074343 -1.843192 3.004701 0.000000 -59.934099 11.472188 1.270949 2.635714 -7.580999 -4.650901 -43.139722 0.711270 -2.726511 37.965429 -0.911113 -2.423038 -4.664341 -0.380101 -0.000000 -76.752100 -6.225557 -1.959356 -1.043431 -1.665677 -1.465098 -3.569214 -5.514466 -1.371899 -2.991069 9.860046 -6.070005 -1.963904 -3.401200 -0.311397 1.407091 0.000000 0.000000 0.000000 14.497896 4.119822 1.237701 -66.015483 0.647940 -11.029857 179.522925 -54.474975 179.865023 10.135836 -8.689859 -0.868448 -0.161041 0.956009 -0.000000 0.000000 0.000000 0.000000 0.000000 0.000000 0.000000 4.360036 -1.012410 -4.297448 83.041778 43.805535 22.266420 -179.765509 57.297370 179.720000 -21.352074 23.199190 -4.834353 0.502365 -1.464585 -0.000000 0.000000 0.000000 0.000000 0.000000 0.000000 0.000000 
3.190879 16.428984 0.890736 169.368787 -69.760751 -151.666815 -9.947484 -0.063306 -2.310976 -4.527580 22.445765 -29.714553 -1.833906 0.574092 25.601288 3.822166 25.416211 -1.333185 3.442000 0.000000 -59.339300 11.313716 1.145510 3.150324 -7.490916 -2.837369 -43.745206 0.716898 -2.525102 36.338938 -0.673830 -1.307425 -3.569559 -0.329300 -0.000000 -77.047100 -5.691870 -1.966473 -1.501437 -1.583728 -1.531309 -3.598249 -5.573550 -1.446110 -2.631129 9.908204 -6.422852 -2.478563 -3.366644 -0.304734 1.278148 0.000000 0.000000 0.000000 14.742401 4.485897 1.550819 -63.651211 3.357525 -12.701960 179.707963 -54.056287 179.878271 9.613073 -8.073370 -0.767340 -0.161748 0.914694 -0.000000 0.000000 0.000000 0.000000 0.000000 0.000000 0.000000 4.473604 -0.947928 -4.223831 82.412091 44.128270 23.038008 179.999865 57.416184 179.726880 -21.515091 22.806357 -4.795807 0.534626 -1.457874 -0.000000 0.000000 0.000000 0.000000 0.000000 0.000000 0.000000 
3.154564 16.479190 0.897975 171.778949 -66.834878 -153.557631 -10.060459 0.068645 -2.432165 -4.595873 23.852741 -28.960044 -1.903508 0.510455 24.201598 3.977301 26.685131 -0.722642 3.945600 0.000000 -58.747300 11.148364 0.991827 3.664311 -7.318044 -1.079507 -44.245055 0.754487 -2.308033 34.408734 -0.414057 -0.114935 -2.276932 -0.235300 -0.000000 -77.417100 -5.055191 -1.959544 -1.961973 -1.487885 -1.594328 -3.628491 -5.646972 -1.516288 -2.273310 9.974945 -6.775082 -2.941766 -3.328395 -0.298368 1.164825 0.000000 0.000000 0.000000 15.016210 4.711933 1.836402 -61.092749 5.995133 -14.387101 179.876185 -53.696875 179.889627 9.172464 -7.564181 -0.687751 -0.164491 0.876972 -0.000000 0.000000 0.000000 0.000000 0.000000 0.000000 0.000000 4.648511 -0.917235 -4.124619 81.602052 44.571720 23.705527 179.781494 57.545985 179.733433 -21.674974 22.404509 -4.752618 0.565436 -1.448951 -0.000000 0.000000 0.000000 0.000000 0.000000 0.000000 0.000000 
3.116568 16.533018 0.906658 173.850842 -63.930469 -155.077472 -10.184888 0.195729 -2.536231 -4.603943 25.266710 -28.209467 -1.973540 0.440348 22.714433 4.107077 27.836641 -0.020957 4.504300 0.000000 -58.187800 10.968721 0.809961 4.170900 -7.062699 0.627036 -44.622300 0.824813 -2.077762 32.199642 -0.139131 1.122134 -0.793477 -0.087900 0.000000 -77.841800 -4.336162 -1.940618 -2.411753 -1.381293 -1.654027 -3.655331 -5.734864 -1.581941 -1.912776 10.063549 -7.132806 -3.358368 -3.288480 -0.292329 1.065036 0.000000 0.000000 0.000000 15.312352 4.817300 2.096966 -58.307470 8.538096 -16.069401 -179.975406 -53.419358 179.898520 8.883704 -7.180883 -0.633658 -0.171680 0.843682 -0.000000 0.000000 0.000000 0.000000 0.000000 0.000000 0.000000 4.897747 -0.932722 -4.002041 80.620627 45.147657 24.259824 179.582182 57.688184 179.739653 -21.823763 22.014082 -4.707491 0.593898 -1.438240 -0.000000 0.000000 0.000000 0.000000 0.000000 0.000000 0.000000 
3.077648 16.588975 0.916319 175.679204 -61.074115 -156.327051 -10.326588 0.312331 -2.630771 -4.537302 26.689364 -27.465498 -2.043992 0.368436 21.178196 4.205818 28.830671 0.761334 5.101800 0.000000 -57.701300 10.770811 0.603970 4.663881 -6.730004 2.291205 -44.862192 0.927949 -1.836956 29.747122 0.142198 2.367886 0.867804 0.119301 -0.000000 -78.299100 -3.556890 -1.912965 -2.837462 -1.267290 -1.711212 -3.673662 -5.838032 -1.643487 -1.543643 10.179907 -7.499064 -3.735846 -3.247754 -0.286529 0.975912 0.000000 0.000000 0.000000 15.626130 4.836430 2.335930 -55.260548 10.947964 -17.718065 -179.847738 -53.265200 179.904692 8.797598 -6.925503 -0.606151 -0.185050 0.815115 -0.000000 0.000000 0.000000 0.000000 0.000000 0.000000 0.000000 5.231286 -1.004233 -3.860196 79.479076 45.861605 24.690847 179.406335 57.841659 179.745469 -21.956942 21.650662 -4.662627 0.619190 -1.426119 -0.000000 0.000000 0.000000 0.000000 0.000000 0.000000 0.000000 
3.038874 16.645545 0.926402 177.319098 -58.289497 -157.371304 -10.486687 0.414616 -2.724312 -4.383760 28.119925 -26.725672 -2.114932 0.299208 19.630117 4.269634 29.635869 1.613955 5.718400 0.000000 -57.337500 10.555049 0.382066 5.137472 -6.332449 3.920070 -44.954442 1.062520 -1.588904 27.097644 0.420357 3.585984 2.686188 0.388400 -0.000000 -78.766300 -2.742497 -1.881413 -3.225853 -1.149540 -1.767853 -3.678358 -5.956588 -1.702552 -1.161080 10.332417 -7.874367 -4.081873 -3.205659 -0.280782 0.894586 0.000000 0.000000 0.000000 15.957458 4.808490 2.557644 -51.919236 13.171711 -19.290261 -179.740049 -53.298895 179.908249 8.934253 -6.776844 -0.602924 -0.205162 0.790774 -0.000000 0.000000 0.000000 0.000000 0.000000 0.000000 0.000000 5.655677 -1.140096 -3.704036 78.190289 46.710176 24.987905 179.260065 58.006935 179.750778 -22.072120 21.324001 -4.619833 0.640463 -1.412802 -0.000000 0.000000 0.000000 0.000000 0.000000 0.000000 0.000000 
3.001304 16.701221 0.936398 178.804578 -55.602622 -158.254930 -10.662146 0.500612 -2.823996 -4.137714 29.548954 -25.986213 -2.186033 0.236346 18.107384 4.297245 30.232172 2.521707 6.330600 -0.000001 -57.111000 10.325576 0.155399 5.586330 -5.888762 5.512892 -44.897793 1.225715 -1.337924 24.311475 0.686134 4.745264 4.630525 0.716600 -0.000000 -79.199000 -1.923990 -1.852501 -3.566958 -1.032454 -1.827133 -3.664985 -6.088917 -1.762082 -0.761244 10.533100 -8.254838 -4.402525 -3.160753 -0.274862 0.818736 0.000000 0.000000 0.000000 16.322227 4.772497 2.767188 -48.277041 15.137234 -20.739420 -179.649663 -53.610650 179.909734 9.259475 -6.718520 -0.619785 -0.230482 0.770333 -0.000000 0.000000 0.000000 0.000000 0.000000 0.000000 0.000000 6.176207 -1.347407 -3.539124 76.762652 47.680366 25.135394 179.151208 58.183775 179.755399 -22.170141 21.034984 -4.579603 0.656948 -1.398256 -0.000000 0.000000 0.000000 0.000000 0.000000 0.000000 0.000000 
2.966224 16.754721 0.945861 -179.850101 -53.038902 -159.007383 -10.846573 0.570446 -2.936129 -3.800422 30.963378 -25.239762 -2.256969 0.182502 16.640768 4.289313 30.611291 3.471098 6.915900 -0.000001 -57.045701 10.089896 -0.062747 6.004527 -5.421536 7.058487 -44.700148 1.412599 -1.089145 21.459873 0.931639 5.823593 6.659744 1.096800 0.000000 -79.567400 -1.135138 -1.833858 -3.851858 -0.921030 -1.893075 -3.630487 -6.232850 -1.826000 -0.344870 10.794141 -8.636499 -4.700158 -3.110640 -0.268533 0.747305 0.000000 0.000000 0.000000 16.738036 4.751906 2.971422 -44.336068 16.779078 -22.015472 -179.573507 -54.305179 179.909864 9.710664 -6.715733 -0.649550 -0.258396 0.752760 -0.000000 0.000000 0.000000 0.000000 0.000000 0.000000 0.000000 6.793054 -1.633385 -3.371447 75.211018 48.747988 25.121490 179.087462 58.372975 179.759155 -22.250561 20.780368 -4.541340 0.667872 -1.382374 -0.000000 0.000000 0.000000 0.000000 0.000000 0.000000 0.000000 
2.934649 16.804831 0.954255 -178.641934 -50.627304 -159.642516 -11.031030 0.626529 -3.061757 -3.382893 32.334019 -24.482369 -2.326405 0.138434 15.255186 4.249844 30.784026 4.446249 7.456100 -0.000000 -57.147600 9.858449 -0.259304 6.386016 -4.952864 8.530764 -44.383907 1.616422 -0.848423 18.624297 1.151584 6.813318 8.721416 1.520001 0.000000 -79.831500 -0.413133 -1.833829 -4.078425 -0.820783 -1.970373 -3.574294 -6.384372 -1.899128 0.084113 11.128566 -9.013989 -4.973123 -3.052797 -0.261623 0.680611 0.000000 0.000000 0.000000 17.232417 4.751483 3.177945 -40.133990 18.039789 -23.073696 -179.508606 -55.499663 179.909559 10.184262 -6.754268 -0.684640 -0.284836 0.737603 -0.000000 0.000000 0.000000 0.000000 0.000000 0.000000 0.000000 7.504108 -2.004978 -3.206698 73.549762 49.877405 24.934303 179.075031 58.574791 179.761883 -22.313532 20.551490 -4.503235 0.672685 -1.364954 -0.000000 0.000000 0.000000 0.000000 0.000000 0.000000 0.000000 
2.907659 16.850683 0.961414 -177.569478 -48.394733 -160.177113 -11.205929 0.672486 -3.201189 -2.903007 33.637887 -23.714744 -2.394091 0.104523 13.971518 4.183105 30.762687 5.426835 7.932800 0.000000 -57.387100 9.642229 -0.423262 6.724023 -4.498285 9.896756 -43.977499 1.829057 -0.621370 15.885962 1.343361 7.719070 10.757062 1.976100 -0.000000 -79.968200 0.209064 -1.859709 -4.245234 -0.736671 -2.063056 -3.497836 -6.539169 -1.985817 0.516968 11.545998 -9.384327 -5.216997 -2.984623 -0.254013 0.620018 0.000000 0.000000 0.000000 17.825816 4.756313 3.394592 -35.721620 18.890556 -23.866455 -179.454215 -57.311351 179.909661 10.577021 -6.822486 -0.717372 -0.306017 0.724317 -0.000000 0.000000 0.000000 0.000000 0.000000 0.000000 0.000000 8.300632 -2.467944 -3.051342 71.801789 51.025247 24.568833 179.116966 58.789801 179.763498 -22.356640 20.339616 -4.463079 0.671016 -1.345891 -0.000000 0.000000 0.000000 0.000000 0.000000 0.000000 0.000000 
